<?xml version="1.0" encoding="UTF-8" standalone="no"?>
<svg
   xmlns:dc="http://purl.org/dc/elements/1.1/"
   xmlns:cc="http://creativecommons.org/ns#"
   xmlns:rdf="http://www.w3.org/1999/02/22-rdf-syntax-ns#"
   xmlns:svg="http://www.w3.org/2000/svg"
   xmlns="http://www.w3.org/2000/svg"
   height="60"
   width="60"
   xml:space="preserve"
   viewBox="0 0 60 60"
   y="0px"
   x="0px"
   id="Layer_1"
   version="1.1"><metadata
     id="metadata41"><rdf:RDF><cc:Work
         rdf:about=""><dc:format>image/svg+xml</dc:format><dc:type
           rdf:resource="http://purl.org/dc/dcmitype/StillImage" /><dc:title></dc:title></cc:Work></rdf:RDF></metadata><defs
     id="defs39" /><style
     id="style2"
     type="text/css">
	.st0{fill:url(#XMLID_3_);}
	.st1{fill:url(#XMLID_8_);}
	.st2{fill:url(#XMLID_11_);}
	.st3{fill:url(#XMLID_12_);}
	.st4{fill:url(#XMLID_13_);}
	.st5{fill:#000066;}
</style><linearGradient
     y2="562.34229"
     x2="641.04199"
     y1="338.33331"
     x1="641.04199"
     gradientUnits="userSpaceOnUse"
     id="XMLID_3_"><stop
       id="stop4"
       style="stop-color:#0066CC"
       offset="2.150538e-002" /><stop
       id="stop6"
       style="stop-color:#003399"
       offset="1" /></linearGradient><polygon
     transform="matrix(0.22181146,0,0,0.22181146,-111.74295,-69.467192)"
     style="fill:url(#XMLID_3_)"
     points="639.7,478.6 574.7,339 517.6,339 624.8,560 654.2,560 764.5,339 705,339 "
     class="st0"
     id="XMLID_4_" /><linearGradient
     y2="513.49512"
     x2="530"
     y1="690"
     x1="530"
     gradientUnits="userSpaceOnUse"
     id="XMLID_8_"><stop
       id="stop10"
       style="stop-color:#0066CC"
       offset="2.150538e-002" /><stop
       id="stop12"
       style="stop-color:#0066FF"
       offset="1" /></linearGradient><polygon
     transform="matrix(0.22181146,0,0,0.22181146,-111.74295,-69.467192)"
     style="fill:url(#XMLID_8_)"
     points="505,339 505,560 555,560 555,440.1 505.6,339 "
     class="st1"
     id="XMLID_6_" /><linearGradient
     y2="513.28461"
     x2="750.5"
     y1="690.58832"
     x1="750.5"
     gradientUnits="userSpaceOnUse"
     id="XMLID_11_"><stop
       id="stop16"
       style="stop-color:#0066CC"
       offset="2.150538e-002" /><stop
       id="stop18"
       style="stop-color:#0066FF"
       offset="1" /></linearGradient><polygon
     transform="matrix(0.22181146,0,0,0.22181146,-111.74295,-69.467192)"
     style="fill:url(#XMLID_11_)"
     points="726,435.3 726,560 775,560 775,338 "
     class="st2"
     id="XMLID_5_" /><linearGradient
     y2="557.88538"
     x2="750.75"
     y1="338.01031"
     x1="750.75"
     gradientUnits="userSpaceOnUse"
     id="XMLID_12_"><stop
       id="stop22"
       style="stop-color:#0066CC"
       offset="2.150538e-002" /><stop
       id="stop24"
       style="stop-color:#003399"
       offset="1" /></linearGradient><polygon
     transform="matrix(0.22181146,0,0,0.22181146,-111.74295,-69.467192)"
     style="fill:url(#XMLID_12_)"
     points="775.5,339 764.5,339 726,414.2 726,435.3 "
     class="st3"
     id="XMLID_7_" /><linearGradient
     y2="559.88342"
     x2="530.25"
     y1="337.01959"
     x1="530.25"
     gradientUnits="userSpaceOnUse"
     id="XMLID_13_"><stop
       id="stop28"
       style="stop-color:#0066CC"
       offset="2.150538e-002" /><stop
       id="stop30"
       style="stop-color:#003399"
       offset="1" /></linearGradient><polygon
     transform="matrix(0.22181146,0,0,0.22181146,-111.74295,-69.467192)"
     style="fill:url(#XMLID_13_)"
     points="505.5,339 518.4,339 555,415.6 555,440.1 "
     class="st4"
     id="XMLID_2_" /><polygon
     transform="matrix(0.22181146,0,0,0.22181146,-111.74295,-69.467192)"
     style="fill:#000066"
     points="775,337.9 726,452 726,414 "
     class="st5"
     id="XMLID_9_" /><polygon
     transform="matrix(0.22181146,0,0,0.22181146,-111.74295,-69.467192)"
     style="fill:#000066"
     points="505.1,338 555,455 555,417 "
     class="st5"
     id="XMLID_10_" /></svg>